<svg width="19" height="18" viewBox="0 0 19 18" fill="none" xmlns="http://www.w3.org/2000/svg">
<g clip-path="url(#clip0_2_593)">
<path d="M9.97861 18.0001C9.78331 18.0001 9.58801 17.9305 9.4361 17.7903C9.12386 17.5017 9.11421 17.0254 9.4132 16.7252L16.3766 9.75398H0.783629C0.350825 9.75398 0 9.41672 0 9.00065C0 8.58458 0.350825 8.24731 0.783629 8.24731H18.2164C18.5298 8.24731 18.8143 8.42811 18.9373 8.70511C19.0603 8.98326 18.9988 9.3043 18.7818 9.52218L10.544 17.7683C10.3909 17.9224 10.1848 18.0001 9.97861 18.0001Z" fill="white"/>
<path d="M15.4664 7.00012C15.2603 7.00012 15.0553 6.92247 14.901 6.76832L9.41318 1.27479C9.11299 0.974619 9.12384 0.498282 9.43608 0.209698C9.74833 -0.0788866 10.245 -0.0684558 10.544 0.231718L16.0318 5.72525C16.332 6.02542 16.3212 6.50176 16.0089 6.79034C15.857 6.93058 15.6617 7.00012 15.4664 7.00012Z" fill="white"/>
</g>
<defs>
<clipPath id="clip0_2_593">
<rect width="19" height="18" fill="white"/>
</clipPath>
</defs>
</svg>
